<mxfile host="www.draw.io" modified="2019-12-16T05:59:51.284Z" agent="Mozilla/5.0 (Windows NT 10.0; Win64; x64) AppleWebKit/537.36 (KHTML, like Gecko) Chrome/79.0.3945.79 Safari/537.36" etag="inAZezk4nCOgTjhoIbeE" version="12.4.2" type="github" pages="1">
  <diagram id="zx8LmBCWDa3fNdCgX86n" name="Page-1">
    <mxGraphModel dx="1038" dy="548" grid="1" gridSize="10" guides="1" tooltips="1" connect="1" arrows="1" fold="1" page="1" pageScale="1" pageWidth="850" pageHeight="1100" math="0" shadow="0">
      <root>
        <mxCell id="0"/>
        <mxCell id="1" parent="0"/>
        <mxCell id="yb0eYwPbStusM7pY6JfE-4" value="" style="ellipse;html=1;shape=startState;fillColor=#000000;strokeColor=#ff0000;" parent="1" vertex="1">
          <mxGeometry x="115" y="90" width="30" height="30" as="geometry"/>
        </mxCell>
        <mxCell id="yb0eYwPbStusM7pY6JfE-5" value="" style="edgeStyle=orthogonalEdgeStyle;html=1;verticalAlign=bottom;endArrow=open;endSize=8;strokeColor=#ff0000;" parent="1" source="yb0eYwPbStusM7pY6JfE-4" target="yb0eYwPbStusM7pY6JfE-7" edge="1">
          <mxGeometry relative="1" as="geometry">
            <mxPoint x="130" y="180" as="targetPoint"/>
          </mxGeometry>
        </mxCell>
        <mxCell id="yb0eYwPbStusM7pY6JfE-6" value="" style="ellipse;html=1;shape=endState;fillColor=#000000;strokeColor=#ff0000;" parent="1" vertex="1">
          <mxGeometry x="600" y="425" width="30" height="30" as="geometry"/>
        </mxCell>
        <mxCell id="yb0eYwPbStusM7pY6JfE-11" value="" style="edgeStyle=orthogonalEdgeStyle;rounded=0;orthogonalLoop=1;jettySize=auto;html=1;" parent="1" source="yb0eYwPbStusM7pY6JfE-7" target="yb0eYwPbStusM7pY6JfE-10" edge="1">
          <mxGeometry relative="1" as="geometry"/>
        </mxCell>
        <mxCell id="yb0eYwPbStusM7pY6JfE-7" value="Ready To Edit Profile" style="rounded=1;whiteSpace=wrap;html=1;" parent="1" vertex="1">
          <mxGeometry x="70" y="180" width="120" height="60" as="geometry"/>
        </mxCell>
        <mxCell id="yb0eYwPbStusM7pY6JfE-14" value="" style="edgeStyle=orthogonalEdgeStyle;rounded=0;orthogonalLoop=1;jettySize=auto;html=1;" parent="1" source="yb0eYwPbStusM7pY6JfE-10" target="yb0eYwPbStusM7pY6JfE-13" edge="1">
          <mxGeometry relative="1" as="geometry"/>
        </mxCell>
        <mxCell id="yb0eYwPbStusM7pY6JfE-21" value="" style="edgeStyle=orthogonalEdgeStyle;rounded=0;orthogonalLoop=1;jettySize=auto;html=1;" parent="1" source="yb0eYwPbStusM7pY6JfE-10" target="yb0eYwPbStusM7pY6JfE-20" edge="1">
          <mxGeometry relative="1" as="geometry"/>
        </mxCell>
        <mxCell id="yb0eYwPbStusM7pY6JfE-10" value="Profile Information Entry" style="rounded=1;whiteSpace=wrap;html=1;" parent="1" vertex="1">
          <mxGeometry x="310" y="180" width="120" height="60" as="geometry"/>
        </mxCell>
        <mxCell id="yb0eYwPbStusM7pY6JfE-24" value="" style="edgeStyle=orthogonalEdgeStyle;rounded=0;orthogonalLoop=1;jettySize=auto;html=1;" parent="1" source="yb0eYwPbStusM7pY6JfE-20" edge="1">
          <mxGeometry relative="1" as="geometry">
            <mxPoint x="690" y="320" as="targetPoint"/>
          </mxGeometry>
        </mxCell>
        <mxCell id="yb0eYwPbStusM7pY6JfE-20" value="Edited Profile(Modified)" style="rounded=1;whiteSpace=wrap;html=1;" parent="1" vertex="1">
          <mxGeometry x="630" y="180" width="120" height="60" as="geometry"/>
        </mxCell>
        <mxCell id="yb0eYwPbStusM7pY6JfE-16" value="" style="edgeStyle=orthogonalEdgeStyle;rounded=0;orthogonalLoop=1;jettySize=auto;html=1;entryX=0;entryY=0.5;entryDx=0;entryDy=0;" parent="1" source="yb0eYwPbStusM7pY6JfE-13" target="yb0eYwPbStusM7pY6JfE-6" edge="1">
          <mxGeometry relative="1" as="geometry">
            <mxPoint x="510" y="350" as="targetPoint"/>
          </mxGeometry>
        </mxCell>
        <mxCell id="yb0eYwPbStusM7pY6JfE-13" value="Not Edited(Not Modified) Profile" style="rounded=1;whiteSpace=wrap;html=1;" parent="1" vertex="1">
          <mxGeometry x="310" y="410" width="120" height="60" as="geometry"/>
        </mxCell>
        <mxCell id="yb0eYwPbStusM7pY6JfE-8" value="State Diagram For Users(Athlete , Admin&amp;nbsp; , Coach)" style="text;html=1;strokeColor=none;fillColor=none;align=center;verticalAlign=middle;whiteSpace=wrap;rounded=0;" parent="1" vertex="1">
          <mxGeometry x="230" y="30" width="430" height="20" as="geometry"/>
        </mxCell>
        <mxCell id="yb0eYwPbStusM7pY6JfE-9" value="Entering The Edit Profile Page" style="text;html=1;strokeColor=none;fillColor=none;align=center;verticalAlign=middle;whiteSpace=wrap;rounded=0;" parent="1" vertex="1">
          <mxGeometry x="130" y="130" width="100" height="20" as="geometry"/>
        </mxCell>
        <mxCell id="yb0eYwPbStusM7pY6JfE-12" value="Entering Infromation" style="text;html=1;strokeColor=none;fillColor=none;align=center;verticalAlign=middle;whiteSpace=wrap;rounded=0;" parent="1" vertex="1">
          <mxGeometry x="190" y="220" width="120" height="20" as="geometry"/>
        </mxCell>
        <mxCell id="yb0eYwPbStusM7pY6JfE-18" value="[Changes On Profile = None]" style="text;html=1;strokeColor=none;fillColor=none;align=center;verticalAlign=middle;whiteSpace=wrap;rounded=0;" parent="1" vertex="1">
          <mxGeometry x="370" y="320" width="160" height="20" as="geometry"/>
        </mxCell>
        <mxCell id="yb0eYwPbStusM7pY6JfE-22" value="[Changes On Profile = Yes]" style="text;html=1;strokeColor=none;fillColor=none;align=center;verticalAlign=middle;whiteSpace=wrap;rounded=0;" parent="1" vertex="1">
          <mxGeometry x="440" y="180" width="160" height="20" as="geometry"/>
        </mxCell>
        <mxCell id="yb0eYwPbStusM7pY6JfE-25" value="" style="ellipse;html=1;shape=endState;fillColor=#000000;strokeColor=#ff0000;" parent="1" vertex="1">
          <mxGeometry x="675" y="320" width="30" height="30" as="geometry"/>
        </mxCell>
        <mxCell id="GjGXzmMoxKWSLpZIQLN5-1" value="Clicking On Finish" style="text;html=1;strokeColor=none;fillColor=none;align=center;verticalAlign=middle;whiteSpace=wrap;rounded=0;" vertex="1" parent="1">
          <mxGeometry x="450" y="405" width="110" height="20" as="geometry"/>
        </mxCell>
        <mxCell id="GjGXzmMoxKWSLpZIQLN5-2" value="Clicking On Finish" style="text;html=1;strokeColor=none;fillColor=none;align=center;verticalAlign=middle;whiteSpace=wrap;rounded=0;" vertex="1" parent="1">
          <mxGeometry x="690" y="270" width="110" height="20" as="geometry"/>
        </mxCell>
      </root>
    </mxGraphModel>
  </diagram>
</mxfile>
